PathFileType	4	(X/Y/Z)	C:\Windows.old\Documents and Settings\Ensem\Mes documents\Donnees_Motion\SAMI\pidr22-markerset_parrot21.trc
DataRate	CameraRate	NumFrames	NumMarkers	Units	OrigDataRate	OrigDataStartFrame	OrigNumFrames
60.00	60.00	        60	6	mm	60.00	1	        60
Frame#	Time	front			back			front_left			front_right			back_left			back_right			
		X1	Y1	Z1	X2	Y2	Z2	X3	Y3	Z3	X4	Y4	Z4	X5	Y5	Z5	X6	Y6	Z6	

1	0.000	634.06537	-87.19786	96.37488	613.94910	142.46411	113.48997	854.41699	-65.05396	86.26458	378.67453	103.90894	84.13679	697.04309	268.24161	87.88354	527.42938	279.03934	85.54392	
2	0.017	634.06537	-87.19786	96.37488	613.96326	142.46358	113.64085	854.29803	-64.96374	86.45484	378.67453	103.90894	84.13679	697.04309	268.24161	87.88354	527.29907	279.08170	85.78966	
3	0.033	634.06537	-87.19786	96.37488	614.26593	142.51581	113.60380	854.29803	-64.96374	86.45484	378.67453	103.90894	84.13679	697.04309	268.24161	87.88354	527.64435	278.96954	85.13910	
4	0.050	634.06537	-87.19786	96.37488	614.26593	142.51581	113.60380	854.29803	-64.96374	86.45484	378.67453	103.90894	84.13679	697.04309	268.24161	87.88354	527.29907	279.08170	85.78966	
5	0.067	634.06537	-87.19786	96.37488	614.26593	142.51581	113.60380	854.29803	-64.96374	86.45484	378.67453	103.90894	84.13679	697.04309	268.24161	87.88354	527.38397	279.16882	85.61840	
6	0.083	634.06537	-87.19786	96.37488	613.96326	142.46358	113.64085	854.29803	-64.96374	86.45484	378.67453	103.90894	84.13679	697.04309	268.24161	87.88354	527.51770	279.11719	85.36728	
7	0.100	634.06537	-87.19786	96.37488	614.26593	142.51581	113.60380	854.41699	-65.05396	86.26458	378.67453	103.90894	84.13679	697.02393	268.04947	87.93556	527.64435	278.96954	85.13910	
8	0.117	633.80310	-87.15800	96.53476	614.26593	142.51581	113.60380	854.31726	-65.06332	86.44346	378.67453	103.90894	84.13679	697.04309	268.24161	87.88354	527.54065	278.89667	85.34466	
9	0.133	634.06537	-87.19786	96.37488	614.26593	142.51581	113.60380	854.29803	-64.96374	86.45484	378.67453	103.90894	84.13679	697.04309	268.24161	87.88354	527.54065	278.89667	85.34466	
10	0.150	634.06537	-87.19786	96.37488	614.26593	142.51581	113.60380	854.29803	-64.96374	86.45484	378.67453	103.90894	84.13679	697.04309	268.24161	87.88354	527.40875	278.93134	85.59396	
11	0.167	634.06537	-87.19786	96.37488	613.96326	142.46358	113.64085	854.29803	-64.96374	86.45484	378.67453	103.90894	84.13679	697.04309	268.24161	87.88354	527.54065	278.89667	85.34466	
12	0.183	634.06537	-87.19786	96.37488	613.96326	142.46358	113.64085	854.41699	-65.05396	86.26458	378.67453	103.90894	84.13679	696.92188	268.19775	88.10727	527.42938	279.03934	85.54392	
13	0.200	634.06537	-87.19786	96.37488	613.96326	142.46358	113.64085	854.29803	-64.96374	86.45484	378.67453	103.90894	84.13679	697.04309	268.24161	87.88354	527.64435	278.96954	85.13910	
14	0.217	634.06537	-87.19786	96.37488	614.26593	142.51581	113.60380	854.41699	-65.05396	86.26458	378.67453	103.90894	84.13679	697.04309	268.24161	87.88354	527.38397	279.16882	85.61840	
15	0.233	634.06537	-87.19786	96.37488	614.26593	142.51581	113.60380	854.29803	-64.96374	86.45484	378.67453	103.90894	84.13679	696.93237	268.38672	88.07126	527.42938	279.03934	85.54392	
16	0.250	634.06537	-87.19786	96.37488	614.26593	142.51581	113.60380	854.18286	-64.96738	86.66003	378.47165	103.66422	84.24296	696.93237	268.38672	88.07126	527.38397	279.16882	85.61840	
17	0.267	634.05444	-87.02399	96.62782	614.26593	142.51581	113.60380	854.29803	-64.96374	86.45484	378.67453	103.90894	84.13679	697.04309	268.24161	87.88354	527.42938	279.03934	85.54392	
18	0.283	634.06537	-87.19786	96.37488	613.94910	142.46411	113.48997	854.29803	-64.96374	86.45484	378.67453	103.90894	84.13679	697.04309	268.24161	87.88354	527.54065	278.89667	85.34466	
19	0.300	634.06537	-87.19786	96.37488	614.26593	142.51581	113.60380	854.41699	-65.05396	86.26458	378.67453	103.90894	84.13679	696.93237	268.38672	88.07126	527.42938	279.03934	85.54392	
20	0.317	634.06537	-87.19786	96.37488	613.64642	142.41190	113.52699	854.18286	-64.96738	86.66003	378.67453	103.90894	84.13679	696.93237	268.38672	88.07126	527.42938	279.03934	85.54392	
21	0.333	634.06537	-87.19786	96.37488	613.96326	142.46358	113.64085	854.18286	-64.96738	86.66003	378.67453	103.90894	84.13679	697.04309	268.24161	87.88354	527.29907	279.08170	85.78966	
22	0.350	634.06537	-87.19786	96.37488	614.26593	142.51581	113.60380	854.41699	-65.05396	86.26458	378.47165	103.66422	84.24296	697.02393	268.04947	87.93556	527.42938	279.03934	85.54392	
23	0.367	634.05444	-87.02399	96.62782	614.26593	142.51581	113.60380	854.29803	-64.96374	86.45484	378.67453	103.90894	84.13679	697.02393	268.04947	87.93556	527.42938	279.03934	85.54392	
24	0.383	633.80310	-87.15800	96.53476	613.96326	142.46358	113.64085	854.29803	-64.96374	86.45484	378.67453	103.90894	84.13679	696.93237	268.38672	88.07126	527.51770	279.11719	85.36728	
25	0.400	634.06537	-87.19786	96.37488	613.96326	142.46358	113.64085	854.29803	-64.96374	86.45484	378.67453	103.90894	84.13679	697.04309	268.24161	87.88354	527.64435	278.96954	85.13910	
26	0.417	634.06537	-87.19786	96.37488	613.96326	142.46358	113.64085	854.41699	-65.05396	86.26458	378.67453	103.90894	84.13679	697.04309	268.24161	87.88354	527.42938	279.03934	85.54392	
27	0.433	634.06537	-87.19786	96.37488	613.96326	142.46358	113.64085	854.29803	-64.96374	86.45484	378.67453	103.90894	84.13679	696.93237	268.38672	88.07126	527.42938	279.03934	85.54392	
28	0.450	634.06537	-87.19786	96.37488	613.96326	142.46358	113.64085	854.41699	-65.05396	86.26458	378.67453	103.90894	84.13679	696.93237	268.38672	88.07126	527.42938	279.03934	85.54392	
29	0.467	634.06537	-87.19786	96.37488	613.96326	142.46358	113.64085	854.29803	-64.96374	86.45484	378.67453	103.90894	84.13679	697.04309	268.24161	87.88354	527.29907	279.08170	85.78966	
30	0.483	634.06537	-87.19786	96.37488	613.96326	142.46358	113.64085	854.29803	-64.96374	86.45484	378.67453	103.90894	84.13679	697.04309	268.24161	87.88354	527.42938	279.03934	85.54392	
31	0.500	634.06537	-87.19786	96.37488	613.96326	142.46358	113.64085	854.29803	-64.96374	86.45484	378.67453	103.90894	84.13679	697.10327	268.10025	88.28640	527.42938	279.03934	85.54392	
32	0.517	634.06537	-87.19786	96.37488	613.96326	142.46358	113.64085	854.18286	-64.96738	86.66003	378.67453	103.90894	84.13679	697.02393	268.04947	87.93556	527.42938	279.03934	85.54392	
33	0.533	634.06537	-87.19786	96.37488	614.26593	142.51581	113.60380	854.29803	-64.96374	86.45484	378.67453	103.90894	84.13679	697.04309	268.24161	87.88354	527.54065	278.89667	85.34466	
34	0.550	634.06537	-87.19786	96.37488	613.96326	142.46358	113.64085	854.29803	-64.96374	86.45484	378.67453	103.90894	84.13679	697.02393	268.04947	87.93556	527.51538	278.71317	85.41106	
35	0.567	634.06537	-87.19786	96.37488	613.96326	142.46358	113.64085	854.29803	-64.96374	86.45484	378.47165	103.66422	84.24296	697.04309	268.24161	87.88354	527.51770	279.11719	85.36728	
36	0.583	634.06537	-87.19786	96.37488	614.26593	142.51581	113.60380	854.41699	-65.05396	86.26458	378.67453	103.90894	84.13679	697.04309	268.24161	87.88354	527.54065	278.89667	85.34466	
37	0.600	634.06537	-87.19786	96.37488	613.96326	142.46358	113.64085	854.41699	-65.05396	86.26458	378.67453	103.90894	84.13679	697.02393	268.04947	87.93556	527.42938	279.03934	85.54392	
38	0.617	634.05444	-87.02399	96.62782	613.96326	142.46358	113.64085	854.41699	-65.05396	86.26458	378.67453	103.90894	84.13679	696.93237	268.38672	88.07126	527.51770	279.11719	85.36728	
39	0.633	634.06537	-87.19786	96.37488	613.96326	142.46358	113.64085	854.29803	-64.96374	86.45484	378.67453	103.90894	84.13679	696.93237	268.38672	88.07126	527.40875	278.93134	85.59396	
40	0.650	634.06537	-87.19786	96.37488	613.96326	142.46358	113.64085	854.29803	-64.96374	86.45484	378.47165	103.66422	84.24296	696.93237	268.38672	88.07126	527.42938	279.03934	85.54392	
41	0.667	634.06537	-87.19786	96.37488	614.26593	142.51581	113.60380	854.18286	-64.96738	86.66003	378.67453	103.90894	84.13679	696.92188	268.19775	88.10727	527.42938	279.03934	85.54392	
42	0.683	634.06537	-87.19786	96.37488	614.26593	142.51581	113.60380	854.29803	-64.96374	86.45484	378.67453	103.90894	84.13679	696.93237	268.38672	88.07126	527.64435	278.96954	85.13910	
43	0.700	634.06537	-87.19786	96.37488	614.26593	142.51581	113.60380	854.29803	-64.96374	86.45484	378.67453	103.90894	84.13679	696.92188	268.19775	88.10727	527.64435	278.96954	85.13910	
44	0.717	634.06537	-87.19786	96.37488	613.64642	142.41190	113.52699	854.31726	-65.06332	86.44346	378.67453	103.90894	84.13679	697.04309	268.24161	87.88354	527.38397	279.16882	85.61840	
45	0.733	634.06537	-87.19786	96.37488	614.26593	142.51581	113.60380	854.41699	-65.05396	86.26458	378.47165	103.66422	84.24296	696.92188	268.19775	88.10727	527.42938	279.03934	85.54392	
46	0.750	634.06537	-87.19786	96.37488	614.26593	142.51581	113.60380	854.29803	-64.96374	86.45484	378.67453	103.90894	84.13679	697.04309	268.24161	87.88354	527.51770	279.11719	85.36728	
47	0.767	634.06537	-87.19786	96.37488	614.26593	142.51581	113.60380	854.29803	-64.96374	86.45484	378.67453	103.90894	84.13679	696.93237	268.38672	88.07126	527.42938	279.03934	85.54392	
48	0.783	634.06537	-87.19786	96.37488	613.96326	142.46358	113.64085	854.29803	-64.96374	86.45484	378.47165	103.66422	84.24296	697.04309	268.24161	87.88354	527.42938	279.03934	85.54392	
49	0.800	634.06537	-87.19786	96.37488	613.96326	142.46358	113.64085	854.29803	-64.96374	86.45484	378.67453	103.90894	84.13679	696.93237	268.38672	88.07126	527.42938	279.03934	85.54392	
50	0.817	634.06537	-87.19786	96.37488	614.26593	142.51581	113.60380	854.41699	-65.05396	86.26458	378.67453	103.90894	84.13679	696.93237	268.38672	88.07126	527.60974	278.76773	85.22491	
51	0.833	634.06537	-87.19786	96.37488	614.26593	142.51581	113.60380	854.29803	-64.96374	86.45484	378.67453	103.90894	84.13679	697.04309	268.24161	87.88354	527.42938	279.03934	85.54392	
52	0.850	634.06537	-87.19786	96.37488	613.94910	142.46411	113.48997	854.29803	-64.96374	86.45484	378.67453	103.90894	84.13679	696.92188	268.19775	88.10727	527.64435	278.96954	85.13910	
53	0.867	634.06537	-87.19786	96.37488	613.96326	142.46358	113.64085	854.29803	-64.96374	86.45484	378.67453	103.90894	84.13679	696.93237	268.38672	88.07126	527.42938	279.03934	85.54392	
54	0.883	634.06537	-87.19786	96.37488	613.96326	142.46358	113.64085	854.29803	-64.96374	86.45484	378.67453	103.90894	84.13679	696.93237	268.38672	88.07126	527.51770	279.11719	85.36728	
55	0.900	634.06537	-87.19786	96.37488	614.26593	142.51581	113.60380	854.29803	-64.96374	86.45484	378.67453	103.90894	84.13679	696.93237	268.38672	88.07126	527.51770	279.11719	85.36728	
56	0.917	634.06537	-87.19786	96.37488	613.96326	142.46358	113.64085	854.29803	-64.96374	86.45484	378.67453	103.90894	84.13679	696.93237	268.38672	88.07126	527.29907	279.08170	85.78966	
57	0.933	634.06537	-87.19786	96.37488	613.96326	142.46358	113.64085	854.29803	-64.96374	86.45484	378.67453	103.90894	84.13679	697.02393	268.04947	87.93556	527.42938	279.03934	85.54392	
58	0.950	634.06537	-87.19786	96.37488	614.26593	142.51581	113.60380	854.29803	-64.96374	86.45484	378.67453	103.90894	84.13679	696.92188	268.19775	88.10727	527.42938	279.03934	85.54392	
59	0.967	634.06537	-87.19786	96.37488	613.96326	142.46358	113.64085	854.29803	-64.96374	86.45484	378.67453	103.90894	84.13679	697.02393	268.04947	87.93556	527.42938	279.03934	85.54392	
60	0.983	633.80310	-87.15800	96.53476	613.96326	142.46358	113.64085	854.29803	-64.96374	86.45484	378.67453	103.90894	84.13679	697.04309	268.24161	87.88354	527.54065	278.89667	85.34466	
